<mxfile host="app.diagrams.net" modified="2023-10-21T18:54:12.629Z" agent="Mozilla/5.0 (Windows NT 10.0; Win64; x64) AppleWebKit/537.36 (KHTML, like Gecko) Chrome/118.0.0.0 Safari/537.36" etag="AolHxzEBVcKygNlFHLG4" version="22.0.6" type="device">
  <diagram name="Page-1" id="2c4490ee-f0b8-94ab-5012-d5dc3445f7a3">
    <mxGraphModel dx="1402" dy="853" grid="1" gridSize="10" guides="1" tooltips="1" connect="0" arrows="1" fold="1" page="1" pageScale="1.5" pageWidth="1169" pageHeight="826" background="none" math="0" shadow="0">
      <root>
        <mxCell id="0" style=";html=1;" />
        <mxCell id="1" style=";html=1;" parent="0" />
        <mxCell id="67c90442a009f359-279" value="2" style="strokeWidth=1;fontStyle=0;html=1;" parent="1" vertex="1">
          <mxGeometry x="360" y="439" width="80" height="20" as="geometry" />
        </mxCell>
        <mxCell id="7a8b956e7d50b54d-104" value="3" style="strokeWidth=1;fontStyle=0;html=1;" parent="1" vertex="1">
          <mxGeometry x="440" y="439" width="80" height="20" as="geometry" />
        </mxCell>
        <mxCell id="7a8b956e7d50b54d-109" value="4" style="strokeWidth=1;fontStyle=0;html=1;" parent="1" vertex="1">
          <mxGeometry x="520" y="439" width="80" height="20" as="geometry" />
        </mxCell>
        <mxCell id="7a8b956e7d50b54d-114" value="5" style="strokeWidth=1;fontStyle=0;html=1;" parent="1" vertex="1">
          <mxGeometry x="600" y="439" width="80" height="20" as="geometry" />
        </mxCell>
        <mxCell id="7a8b956e7d50b54d-145" value="1" style="strokeWidth=1;fontStyle=0;html=1;" parent="1" vertex="1">
          <mxGeometry x="280" y="439" width="80" height="20" as="geometry" />
        </mxCell>
        <mxCell id="7a8b956e7d50b54d-151" value="Week" style="strokeWidth=1;fontStyle=0;html=1;" parent="1" vertex="1">
          <mxGeometry x="160" y="439" width="120" height="20" as="geometry" />
        </mxCell>
        <mxCell id="7a8b956e7d50b54d-162" value="Employess" style="align=left;strokeColor=#CCCCCC;html=1;" parent="1" vertex="1">
          <mxGeometry x="160" y="459" width="120" height="20" as="geometry" />
        </mxCell>
        <mxCell id="7a8b956e7d50b54d-163" value="" style="align=left;strokeColor=#CCCCCC;html=1;" parent="1" vertex="1">
          <mxGeometry x="160" y="499" width="120" height="20" as="geometry" />
        </mxCell>
        <mxCell id="7a8b956e7d50b54d-177" value="" style="align=left;strokeColor=#CCCCCC;html=1;" parent="1" vertex="1">
          <mxGeometry x="280" y="479" width="80" height="20" as="geometry" />
        </mxCell>
        <mxCell id="7a8b956e7d50b54d-193" value="" style="align=left;strokeColor=#CCCCCC;html=1;" parent="1" vertex="1">
          <mxGeometry x="360" y="479" width="80" height="20" as="geometry" />
        </mxCell>
        <mxCell id="7a8b956e7d50b54d-209" value="" style="align=left;strokeColor=#CCCCCC;html=1;" parent="1" vertex="1">
          <mxGeometry x="520" y="479" width="80" height="20" as="geometry" />
        </mxCell>
        <mxCell id="7a8b956e7d50b54d-225" value="" style="align=left;strokeColor=#CCCCCC;html=1;" parent="1" vertex="1">
          <mxGeometry x="440" y="479" width="80" height="20" as="geometry" />
        </mxCell>
        <mxCell id="7a8b956e7d50b54d-226" value="" style="align=left;strokeColor=#CCCCCC;html=1;" parent="1" vertex="1">
          <mxGeometry x="600" y="479" width="80" height="20" as="geometry" />
        </mxCell>
        <mxCell id="7a8b956e7d50b54d-242" value="" style="align=left;strokeColor=#CCCCCC;html=1;" parent="1" vertex="1">
          <mxGeometry x="680" y="479" width="80" height="20" as="geometry" />
        </mxCell>
        <mxCell id="7a8b956e7d50b54d-243" value="" style="align=left;strokeColor=#CCCCCC;html=1;" parent="1" vertex="1">
          <mxGeometry x="760" y="479" width="80" height="20" as="geometry" />
        </mxCell>
        <mxCell id="7a8b956e7d50b54d-244" value="" style="align=left;strokeColor=#CCCCCC;html=1;" parent="1" vertex="1">
          <mxGeometry x="840" y="479" width="80" height="20" as="geometry" />
        </mxCell>
        <mxCell id="7a8b956e7d50b54d-245" value="" style="align=left;strokeColor=#CCCCCC;html=1;" parent="1" vertex="1">
          <mxGeometry x="920" y="479" width="80" height="20" as="geometry" />
        </mxCell>
        <mxCell id="7a8b956e7d50b54d-246" value="" style="align=left;strokeColor=#CCCCCC;html=1;" parent="1" vertex="1">
          <mxGeometry x="1080" y="479" width="80" height="20" as="geometry" />
        </mxCell>
        <mxCell id="7a8b956e7d50b54d-247" value="" style="align=left;strokeColor=#CCCCCC;html=1;" parent="1" vertex="1">
          <mxGeometry x="1000" y="479" width="80" height="20" as="geometry" />
        </mxCell>
        <mxCell id="7a8b956e7d50b54d-248" value="" style="align=left;strokeColor=#CCCCCC;html=1;" parent="1" vertex="1">
          <mxGeometry x="1160" y="479" width="80" height="20" as="geometry" />
        </mxCell>
        <mxCell id="p_AoQ99GkYx1gfr2tnEL-2" value="6" style="strokeWidth=1;fontStyle=0;html=1;" vertex="1" parent="1">
          <mxGeometry x="680" y="439" width="80" height="20" as="geometry" />
        </mxCell>
        <mxCell id="p_AoQ99GkYx1gfr2tnEL-3" value="7" style="strokeWidth=1;fontStyle=0;html=1;" vertex="1" parent="1">
          <mxGeometry x="760" y="439" width="80" height="20" as="geometry" />
        </mxCell>
        <mxCell id="p_AoQ99GkYx1gfr2tnEL-4" value="8" style="strokeWidth=1;fontStyle=0;html=1;" vertex="1" parent="1">
          <mxGeometry x="840" y="439" width="80" height="20" as="geometry" />
        </mxCell>
        <mxCell id="p_AoQ99GkYx1gfr2tnEL-5" value="9" style="strokeWidth=1;fontStyle=0;html=1;" vertex="1" parent="1">
          <mxGeometry x="920" y="439" width="80" height="20" as="geometry" />
        </mxCell>
        <mxCell id="p_AoQ99GkYx1gfr2tnEL-7" value="10" style="strokeWidth=1;fontStyle=0;html=1;" vertex="1" parent="1">
          <mxGeometry x="1000" y="439" width="80" height="20" as="geometry" />
        </mxCell>
        <mxCell id="p_AoQ99GkYx1gfr2tnEL-8" value="11" style="strokeWidth=1;fontStyle=0;html=1;" vertex="1" parent="1">
          <mxGeometry x="1080" y="439" width="80" height="20" as="geometry" />
        </mxCell>
        <mxCell id="p_AoQ99GkYx1gfr2tnEL-9" value="12" style="strokeWidth=1;fontStyle=0;html=1;" vertex="1" parent="1">
          <mxGeometry x="1160" y="439" width="80" height="20" as="geometry" />
        </mxCell>
        <mxCell id="p_AoQ99GkYx1gfr2tnEL-14" value="" style="align=left;strokeColor=#CCCCCC;html=1;" vertex="1" parent="1">
          <mxGeometry x="160" y="580" width="120" height="20" as="geometry" />
        </mxCell>
        <mxCell id="p_AoQ99GkYx1gfr2tnEL-15" value="" style="align=left;strokeColor=#CCCCCC;html=1;" vertex="1" parent="1">
          <mxGeometry x="160" y="600" width="120" height="20" as="geometry" />
        </mxCell>
        <mxCell id="p_AoQ99GkYx1gfr2tnEL-16" value="" style="align=left;strokeColor=#CCCCCC;html=1;" vertex="1" parent="1">
          <mxGeometry x="160" y="560" width="120" height="20" as="geometry" />
        </mxCell>
        <mxCell id="p_AoQ99GkYx1gfr2tnEL-17" value="" style="align=left;strokeColor=#CCCCCC;html=1;" vertex="1" parent="1">
          <mxGeometry x="160" y="539" width="120" height="20" as="geometry" />
        </mxCell>
        <mxCell id="p_AoQ99GkYx1gfr2tnEL-18" value="" style="align=left;strokeColor=#CCCCCC;html=1;" vertex="1" parent="1">
          <mxGeometry x="160" y="519" width="120" height="20" as="geometry" />
        </mxCell>
        <mxCell id="p_AoQ99GkYx1gfr2tnEL-20" value="" style="align=left;strokeColor=#CCCCCC;html=1;" vertex="1" parent="1">
          <mxGeometry x="280" y="499" width="80" height="20" as="geometry" />
        </mxCell>
        <mxCell id="p_AoQ99GkYx1gfr2tnEL-21" value="" style="align=left;strokeColor=#CCCCCC;html=1;" vertex="1" parent="1">
          <mxGeometry x="360" y="499" width="80" height="20" as="geometry" />
        </mxCell>
        <mxCell id="p_AoQ99GkYx1gfr2tnEL-22" value="" style="align=left;strokeColor=#CCCCCC;html=1;" vertex="1" parent="1">
          <mxGeometry x="520" y="499" width="80" height="20" as="geometry" />
        </mxCell>
        <mxCell id="p_AoQ99GkYx1gfr2tnEL-23" value="" style="align=left;strokeColor=#CCCCCC;html=1;" vertex="1" parent="1">
          <mxGeometry x="440" y="499" width="80" height="20" as="geometry" />
        </mxCell>
        <mxCell id="p_AoQ99GkYx1gfr2tnEL-24" value="" style="align=left;strokeColor=#CCCCCC;html=1;" vertex="1" parent="1">
          <mxGeometry x="600" y="499" width="80" height="20" as="geometry" />
        </mxCell>
        <mxCell id="p_AoQ99GkYx1gfr2tnEL-26" value="" style="align=left;strokeColor=#CCCCCC;html=1;" vertex="1" parent="1">
          <mxGeometry x="760" y="499" width="80" height="20" as="geometry" />
        </mxCell>
        <mxCell id="p_AoQ99GkYx1gfr2tnEL-27" value="" style="align=left;strokeColor=#CCCCCC;html=1;" vertex="1" parent="1">
          <mxGeometry x="840" y="499" width="80" height="20" as="geometry" />
        </mxCell>
        <mxCell id="p_AoQ99GkYx1gfr2tnEL-28" value="" style="align=left;strokeColor=#CCCCCC;html=1;" vertex="1" parent="1">
          <mxGeometry x="920" y="499" width="80" height="20" as="geometry" />
        </mxCell>
        <mxCell id="p_AoQ99GkYx1gfr2tnEL-29" value="" style="align=left;strokeColor=#CCCCCC;html=1;" vertex="1" parent="1">
          <mxGeometry x="1080" y="499" width="80" height="20" as="geometry" />
        </mxCell>
        <mxCell id="p_AoQ99GkYx1gfr2tnEL-30" value="" style="align=left;strokeColor=#CCCCCC;html=1;" vertex="1" parent="1">
          <mxGeometry x="1000" y="499" width="80" height="20" as="geometry" />
        </mxCell>
        <mxCell id="p_AoQ99GkYx1gfr2tnEL-31" value="" style="align=left;strokeColor=#CCCCCC;html=1;" vertex="1" parent="1">
          <mxGeometry x="1160" y="499" width="80" height="20" as="geometry" />
        </mxCell>
        <mxCell id="p_AoQ99GkYx1gfr2tnEL-33" value="" style="align=left;strokeColor=#CCCCCC;html=1;" vertex="1" parent="1">
          <mxGeometry x="280" y="520" width="80" height="20" as="geometry" />
        </mxCell>
        <mxCell id="p_AoQ99GkYx1gfr2tnEL-34" value="" style="align=left;strokeColor=#CCCCCC;html=1;" vertex="1" parent="1">
          <mxGeometry x="360" y="520" width="80" height="20" as="geometry" />
        </mxCell>
        <mxCell id="p_AoQ99GkYx1gfr2tnEL-35" value="" style="align=left;strokeColor=#CCCCCC;html=1;" vertex="1" parent="1">
          <mxGeometry x="520" y="520" width="80" height="20" as="geometry" />
        </mxCell>
        <mxCell id="p_AoQ99GkYx1gfr2tnEL-36" value="" style="align=left;strokeColor=#CCCCCC;html=1;" vertex="1" parent="1">
          <mxGeometry x="440" y="520" width="80" height="20" as="geometry" />
        </mxCell>
        <mxCell id="p_AoQ99GkYx1gfr2tnEL-37" value="" style="align=left;strokeColor=#CCCCCC;html=1;" vertex="1" parent="1">
          <mxGeometry x="600" y="520" width="80" height="20" as="geometry" />
        </mxCell>
        <mxCell id="p_AoQ99GkYx1gfr2tnEL-38" value="" style="align=left;strokeColor=#CCCCCC;html=1;" vertex="1" parent="1">
          <mxGeometry x="680" y="520" width="80" height="20" as="geometry" />
        </mxCell>
        <mxCell id="p_AoQ99GkYx1gfr2tnEL-39" value="" style="align=left;strokeColor=#CCCCCC;html=1;" vertex="1" parent="1">
          <mxGeometry x="760" y="520" width="80" height="20" as="geometry" />
        </mxCell>
        <mxCell id="p_AoQ99GkYx1gfr2tnEL-40" value="" style="align=left;strokeColor=#CCCCCC;html=1;" vertex="1" parent="1">
          <mxGeometry x="840" y="520" width="80" height="20" as="geometry" />
        </mxCell>
        <mxCell id="p_AoQ99GkYx1gfr2tnEL-41" value="" style="align=left;strokeColor=#CCCCCC;html=1;" vertex="1" parent="1">
          <mxGeometry x="920" y="520" width="80" height="20" as="geometry" />
        </mxCell>
        <mxCell id="p_AoQ99GkYx1gfr2tnEL-42" value="" style="align=left;strokeColor=#CCCCCC;html=1;" vertex="1" parent="1">
          <mxGeometry x="1080" y="520" width="80" height="20" as="geometry" />
        </mxCell>
        <mxCell id="p_AoQ99GkYx1gfr2tnEL-43" value="" style="align=left;strokeColor=#CCCCCC;html=1;" vertex="1" parent="1">
          <mxGeometry x="1000" y="520" width="80" height="20" as="geometry" />
        </mxCell>
        <mxCell id="p_AoQ99GkYx1gfr2tnEL-44" value="" style="align=left;strokeColor=#CCCCCC;html=1;" vertex="1" parent="1">
          <mxGeometry x="1160" y="520" width="80" height="20" as="geometry" />
        </mxCell>
        <mxCell id="p_AoQ99GkYx1gfr2tnEL-46" value="" style="align=left;strokeColor=#CCCCCC;html=1;" vertex="1" parent="1">
          <mxGeometry x="280" y="540" width="80" height="20" as="geometry" />
        </mxCell>
        <mxCell id="p_AoQ99GkYx1gfr2tnEL-47" value="" style="align=left;strokeColor=#CCCCCC;html=1;" vertex="1" parent="1">
          <mxGeometry x="360" y="540" width="80" height="20" as="geometry" />
        </mxCell>
        <mxCell id="p_AoQ99GkYx1gfr2tnEL-48" value="" style="align=left;strokeColor=#CCCCCC;html=1;" vertex="1" parent="1">
          <mxGeometry x="520" y="540" width="80" height="20" as="geometry" />
        </mxCell>
        <mxCell id="p_AoQ99GkYx1gfr2tnEL-49" value="" style="align=left;strokeColor=#CCCCCC;html=1;" vertex="1" parent="1">
          <mxGeometry x="440" y="540" width="80" height="20" as="geometry" />
        </mxCell>
        <mxCell id="p_AoQ99GkYx1gfr2tnEL-50" value="" style="align=left;strokeColor=#CCCCCC;html=1;" vertex="1" parent="1">
          <mxGeometry x="600" y="540" width="80" height="20" as="geometry" />
        </mxCell>
        <mxCell id="p_AoQ99GkYx1gfr2tnEL-51" value="" style="align=left;strokeColor=#CCCCCC;html=1;" vertex="1" parent="1">
          <mxGeometry x="680" y="540" width="80" height="20" as="geometry" />
        </mxCell>
        <mxCell id="p_AoQ99GkYx1gfr2tnEL-52" value="" style="align=left;strokeColor=#CCCCCC;html=1;" vertex="1" parent="1">
          <mxGeometry x="760" y="540" width="80" height="20" as="geometry" />
        </mxCell>
        <mxCell id="p_AoQ99GkYx1gfr2tnEL-53" value="" style="align=left;strokeColor=#CCCCCC;html=1;" vertex="1" parent="1">
          <mxGeometry x="840" y="540" width="80" height="20" as="geometry" />
        </mxCell>
        <mxCell id="p_AoQ99GkYx1gfr2tnEL-54" value="" style="align=left;strokeColor=#CCCCCC;html=1;" vertex="1" parent="1">
          <mxGeometry x="920" y="540" width="80" height="20" as="geometry" />
        </mxCell>
        <mxCell id="p_AoQ99GkYx1gfr2tnEL-55" value="" style="align=left;strokeColor=#CCCCCC;html=1;" vertex="1" parent="1">
          <mxGeometry x="1080" y="540" width="80" height="20" as="geometry" />
        </mxCell>
        <mxCell id="p_AoQ99GkYx1gfr2tnEL-56" value="" style="align=left;strokeColor=#CCCCCC;html=1;" vertex="1" parent="1">
          <mxGeometry x="1000" y="540" width="80" height="20" as="geometry" />
        </mxCell>
        <mxCell id="p_AoQ99GkYx1gfr2tnEL-57" value="" style="align=left;strokeColor=#CCCCCC;html=1;" vertex="1" parent="1">
          <mxGeometry x="1160" y="540" width="80" height="20" as="geometry" />
        </mxCell>
        <mxCell id="p_AoQ99GkYx1gfr2tnEL-59" value="" style="align=left;strokeColor=#CCCCCC;html=1;" vertex="1" parent="1">
          <mxGeometry x="280" y="459" width="80" height="20" as="geometry" />
        </mxCell>
        <mxCell id="p_AoQ99GkYx1gfr2tnEL-60" value="" style="align=left;strokeColor=#CCCCCC;html=1;" vertex="1" parent="1">
          <mxGeometry x="360" y="459" width="80" height="20" as="geometry" />
        </mxCell>
        <mxCell id="p_AoQ99GkYx1gfr2tnEL-61" value="" style="align=left;strokeColor=#CCCCCC;html=1;" vertex="1" parent="1">
          <mxGeometry x="520" y="459" width="80" height="20" as="geometry" />
        </mxCell>
        <mxCell id="p_AoQ99GkYx1gfr2tnEL-62" value="" style="align=left;strokeColor=#CCCCCC;html=1;" vertex="1" parent="1">
          <mxGeometry x="440" y="459" width="80" height="20" as="geometry" />
        </mxCell>
        <mxCell id="p_AoQ99GkYx1gfr2tnEL-63" value="" style="align=left;strokeColor=#CCCCCC;html=1;" vertex="1" parent="1">
          <mxGeometry x="600" y="459" width="80" height="20" as="geometry" />
        </mxCell>
        <mxCell id="p_AoQ99GkYx1gfr2tnEL-65" value="" style="align=left;strokeColor=#CCCCCC;html=1;" vertex="1" parent="1">
          <mxGeometry x="760" y="459" width="80" height="20" as="geometry" />
        </mxCell>
        <mxCell id="p_AoQ99GkYx1gfr2tnEL-66" value="" style="align=left;strokeColor=#CCCCCC;html=1;" vertex="1" parent="1">
          <mxGeometry x="840" y="459" width="80" height="20" as="geometry" />
        </mxCell>
        <mxCell id="p_AoQ99GkYx1gfr2tnEL-67" value="" style="align=left;strokeColor=#CCCCCC;html=1;" vertex="1" parent="1">
          <mxGeometry x="920" y="459" width="80" height="20" as="geometry" />
        </mxCell>
        <mxCell id="p_AoQ99GkYx1gfr2tnEL-68" value="" style="align=left;strokeColor=#CCCCCC;html=1;" vertex="1" parent="1">
          <mxGeometry x="1080" y="459" width="80" height="20" as="geometry" />
        </mxCell>
        <mxCell id="p_AoQ99GkYx1gfr2tnEL-69" value="" style="align=left;strokeColor=#CCCCCC;html=1;" vertex="1" parent="1">
          <mxGeometry x="1000" y="459" width="80" height="20" as="geometry" />
        </mxCell>
        <mxCell id="p_AoQ99GkYx1gfr2tnEL-70" value="" style="align=left;strokeColor=#CCCCCC;html=1;" vertex="1" parent="1">
          <mxGeometry x="1160" y="459" width="80" height="20" as="geometry" />
        </mxCell>
        <mxCell id="p_AoQ99GkYx1gfr2tnEL-72" value="" style="align=left;strokeColor=#CCCCCC;html=1;" vertex="1" parent="1">
          <mxGeometry x="280" y="560" width="80" height="20" as="geometry" />
        </mxCell>
        <mxCell id="p_AoQ99GkYx1gfr2tnEL-73" value="" style="align=left;strokeColor=#CCCCCC;html=1;" vertex="1" parent="1">
          <mxGeometry x="360" y="560" width="80" height="20" as="geometry" />
        </mxCell>
        <mxCell id="p_AoQ99GkYx1gfr2tnEL-74" value="" style="align=left;strokeColor=#CCCCCC;html=1;" vertex="1" parent="1">
          <mxGeometry x="520" y="560" width="80" height="20" as="geometry" />
        </mxCell>
        <mxCell id="p_AoQ99GkYx1gfr2tnEL-75" value="" style="align=left;strokeColor=#CCCCCC;html=1;" vertex="1" parent="1">
          <mxGeometry x="440" y="560" width="80" height="20" as="geometry" />
        </mxCell>
        <mxCell id="p_AoQ99GkYx1gfr2tnEL-76" value="" style="align=left;strokeColor=#CCCCCC;html=1;" vertex="1" parent="1">
          <mxGeometry x="600" y="560" width="80" height="20" as="geometry" />
        </mxCell>
        <mxCell id="p_AoQ99GkYx1gfr2tnEL-77" value="" style="align=left;strokeColor=#CCCCCC;html=1;" vertex="1" parent="1">
          <mxGeometry x="682.5" y="562.5" width="80" height="20" as="geometry" />
        </mxCell>
        <mxCell id="p_AoQ99GkYx1gfr2tnEL-78" value="" style="align=left;strokeColor=#CCCCCC;html=1;" vertex="1" parent="1">
          <mxGeometry x="760" y="560" width="80" height="20" as="geometry" />
        </mxCell>
        <mxCell id="p_AoQ99GkYx1gfr2tnEL-79" value="" style="align=left;strokeColor=#CCCCCC;html=1;" vertex="1" parent="1">
          <mxGeometry x="840" y="560" width="80" height="20" as="geometry" />
        </mxCell>
        <mxCell id="p_AoQ99GkYx1gfr2tnEL-80" value="" style="align=left;strokeColor=#CCCCCC;html=1;" vertex="1" parent="1">
          <mxGeometry x="920" y="560" width="80" height="20" as="geometry" />
        </mxCell>
        <mxCell id="p_AoQ99GkYx1gfr2tnEL-81" value="" style="align=left;strokeColor=#CCCCCC;html=1;" vertex="1" parent="1">
          <mxGeometry x="1080" y="560" width="80" height="20" as="geometry" />
        </mxCell>
        <mxCell id="p_AoQ99GkYx1gfr2tnEL-82" value="" style="align=left;strokeColor=#CCCCCC;html=1;" vertex="1" parent="1">
          <mxGeometry x="1000" y="560" width="80" height="20" as="geometry" />
        </mxCell>
        <mxCell id="p_AoQ99GkYx1gfr2tnEL-83" value="" style="align=left;strokeColor=#CCCCCC;html=1;" vertex="1" parent="1">
          <mxGeometry x="1160" y="560" width="80" height="20" as="geometry" />
        </mxCell>
        <mxCell id="p_AoQ99GkYx1gfr2tnEL-85" value="" style="align=left;strokeColor=#CCCCCC;html=1;" vertex="1" parent="1">
          <mxGeometry x="280" y="580" width="80" height="20" as="geometry" />
        </mxCell>
        <mxCell id="p_AoQ99GkYx1gfr2tnEL-86" value="" style="align=left;strokeColor=#CCCCCC;html=1;" vertex="1" parent="1">
          <mxGeometry x="360" y="580" width="80" height="20" as="geometry" />
        </mxCell>
        <mxCell id="p_AoQ99GkYx1gfr2tnEL-87" value="" style="align=left;strokeColor=#CCCCCC;html=1;" vertex="1" parent="1">
          <mxGeometry x="520" y="580" width="80" height="20" as="geometry" />
        </mxCell>
        <mxCell id="p_AoQ99GkYx1gfr2tnEL-88" value="" style="align=left;strokeColor=#CCCCCC;html=1;" vertex="1" parent="1">
          <mxGeometry x="440" y="580" width="80" height="20" as="geometry" />
        </mxCell>
        <mxCell id="p_AoQ99GkYx1gfr2tnEL-89" value="" style="align=left;strokeColor=#CCCCCC;html=1;" vertex="1" parent="1">
          <mxGeometry x="600" y="580" width="80" height="20" as="geometry" />
        </mxCell>
        <mxCell id="p_AoQ99GkYx1gfr2tnEL-90" value="" style="align=left;strokeColor=#CCCCCC;html=1;" vertex="1" parent="1">
          <mxGeometry x="680" y="580" width="80" height="20" as="geometry" />
        </mxCell>
        <mxCell id="p_AoQ99GkYx1gfr2tnEL-91" value="" style="align=left;strokeColor=#CCCCCC;html=1;" vertex="1" parent="1">
          <mxGeometry x="760" y="580" width="80" height="20" as="geometry" />
        </mxCell>
        <mxCell id="p_AoQ99GkYx1gfr2tnEL-92" value="" style="align=left;strokeColor=#CCCCCC;html=1;" vertex="1" parent="1">
          <mxGeometry x="840" y="580" width="80" height="20" as="geometry" />
        </mxCell>
        <mxCell id="p_AoQ99GkYx1gfr2tnEL-93" value="" style="align=left;strokeColor=#CCCCCC;html=1;" vertex="1" parent="1">
          <mxGeometry x="920" y="580" width="80" height="20" as="geometry" />
        </mxCell>
        <mxCell id="p_AoQ99GkYx1gfr2tnEL-94" value="" style="align=left;strokeColor=#CCCCCC;html=1;" vertex="1" parent="1">
          <mxGeometry x="1080" y="580" width="80" height="20" as="geometry" />
        </mxCell>
        <mxCell id="p_AoQ99GkYx1gfr2tnEL-95" value="" style="align=left;strokeColor=#CCCCCC;html=1;" vertex="1" parent="1">
          <mxGeometry x="1000" y="580" width="80" height="20" as="geometry" />
        </mxCell>
        <mxCell id="p_AoQ99GkYx1gfr2tnEL-96" value="" style="align=left;strokeColor=#CCCCCC;html=1;" vertex="1" parent="1">
          <mxGeometry x="1160" y="580" width="80" height="20" as="geometry" />
        </mxCell>
        <mxCell id="p_AoQ99GkYx1gfr2tnEL-98" value="" style="align=left;strokeColor=#CCCCCC;html=1;" vertex="1" parent="1">
          <mxGeometry x="280" y="600" width="80" height="20" as="geometry" />
        </mxCell>
        <mxCell id="p_AoQ99GkYx1gfr2tnEL-99" value="" style="align=left;strokeColor=#CCCCCC;html=1;" vertex="1" parent="1">
          <mxGeometry x="360" y="600" width="80" height="20" as="geometry" />
        </mxCell>
        <mxCell id="p_AoQ99GkYx1gfr2tnEL-100" value="" style="align=left;strokeColor=#CCCCCC;html=1;" vertex="1" parent="1">
          <mxGeometry x="520" y="600" width="80" height="20" as="geometry" />
        </mxCell>
        <mxCell id="p_AoQ99GkYx1gfr2tnEL-101" value="" style="align=left;strokeColor=#CCCCCC;html=1;" vertex="1" parent="1">
          <mxGeometry x="440" y="600" width="80" height="20" as="geometry" />
        </mxCell>
        <mxCell id="p_AoQ99GkYx1gfr2tnEL-102" value="" style="align=left;strokeColor=#CCCCCC;html=1;" vertex="1" parent="1">
          <mxGeometry x="600" y="600" width="80" height="20" as="geometry" />
        </mxCell>
        <mxCell id="p_AoQ99GkYx1gfr2tnEL-103" value="" style="align=left;strokeColor=#CCCCCC;html=1;" vertex="1" parent="1">
          <mxGeometry x="680" y="600" width="80" height="20" as="geometry" />
        </mxCell>
        <mxCell id="p_AoQ99GkYx1gfr2tnEL-104" value="" style="align=left;strokeColor=#CCCCCC;html=1;" vertex="1" parent="1">
          <mxGeometry x="760" y="600" width="80" height="20" as="geometry" />
        </mxCell>
        <mxCell id="p_AoQ99GkYx1gfr2tnEL-105" value="" style="align=left;strokeColor=#CCCCCC;html=1;" vertex="1" parent="1">
          <mxGeometry x="840" y="600" width="80" height="20" as="geometry" />
        </mxCell>
        <mxCell id="p_AoQ99GkYx1gfr2tnEL-106" value="" style="align=left;strokeColor=#CCCCCC;html=1;" vertex="1" parent="1">
          <mxGeometry x="920" y="600" width="80" height="20" as="geometry" />
        </mxCell>
        <mxCell id="p_AoQ99GkYx1gfr2tnEL-107" value="" style="align=left;strokeColor=#CCCCCC;html=1;" vertex="1" parent="1">
          <mxGeometry x="1080" y="600" width="80" height="20" as="geometry" />
        </mxCell>
        <mxCell id="p_AoQ99GkYx1gfr2tnEL-108" value="" style="align=left;strokeColor=#CCCCCC;html=1;" vertex="1" parent="1">
          <mxGeometry x="1000" y="600" width="80" height="20" as="geometry" />
        </mxCell>
        <mxCell id="p_AoQ99GkYx1gfr2tnEL-109" value="" style="align=left;strokeColor=#CCCCCC;html=1;" vertex="1" parent="1">
          <mxGeometry x="1160" y="600" width="80" height="20" as="geometry" />
        </mxCell>
        <mxCell id="p_AoQ99GkYx1gfr2tnEL-113" value="" style="align=left;strokeColor=#CCCCCC;html=1;" vertex="1" parent="1">
          <mxGeometry x="160" y="479" width="120" height="20" as="geometry" />
        </mxCell>
        <mxCell id="7a8b956e7d50b54d-353" value="T1" style="align=left;strokeColor=#A50040;html=1;fillColor=#d80073;fontColor=#ffffff;" parent="1" vertex="1">
          <mxGeometry x="600" y="481.5" width="60" height="15" as="geometry" />
        </mxCell>
        <mxCell id="7a8b956e7d50b54d-355" value="T3" style="align=left;strokeColor=#006EAF;html=1;fillColor=#1ba1e2;fontColor=#ffffff;" parent="1" vertex="1">
          <mxGeometry x="600" y="521.5" width="60" height="15" as="geometry" />
        </mxCell>
        <mxCell id="p_AoQ99GkYx1gfr2tnEL-114" value="Newsagent App Project Team 1" style="align=left;strokeColor=#d79b00;html=1;fillColor=#ffcd28;gradientColor=#ffa500;" vertex="1" parent="1">
          <mxGeometry x="280" y="461" width="880" height="15" as="geometry" />
        </mxCell>
        <mxCell id="p_AoQ99GkYx1gfr2tnEL-115" value="Deliverable" style="align=left;strokeColor=#b85450;html=1;fillColor=#f8cecc;gradientColor=#ea6b66;" vertex="1" parent="1">
          <mxGeometry x="1160" y="461" width="80" height="15" as="geometry" />
        </mxCell>
        <mxCell id="p_AoQ99GkYx1gfr2tnEL-116" value="" style="align=left;strokeColor=#CCCCCC;html=1;" vertex="1" parent="1">
          <mxGeometry x="160" y="620" width="120" height="20" as="geometry" />
        </mxCell>
        <mxCell id="p_AoQ99GkYx1gfr2tnEL-117" value="" style="align=left;strokeColor=#CCCCCC;html=1;" vertex="1" parent="1">
          <mxGeometry x="280" y="620" width="80" height="20" as="geometry" />
        </mxCell>
        <mxCell id="p_AoQ99GkYx1gfr2tnEL-118" value="" style="align=left;strokeColor=#CCCCCC;html=1;" vertex="1" parent="1">
          <mxGeometry x="360" y="620" width="80" height="20" as="geometry" />
        </mxCell>
        <mxCell id="p_AoQ99GkYx1gfr2tnEL-119" value="" style="align=left;strokeColor=#CCCCCC;html=1;" vertex="1" parent="1">
          <mxGeometry x="520" y="620" width="80" height="20" as="geometry" />
        </mxCell>
        <mxCell id="p_AoQ99GkYx1gfr2tnEL-120" value="" style="align=left;strokeColor=#CCCCCC;html=1;" vertex="1" parent="1">
          <mxGeometry x="440" y="620" width="80" height="20" as="geometry" />
        </mxCell>
        <mxCell id="p_AoQ99GkYx1gfr2tnEL-121" value="" style="align=left;strokeColor=#CCCCCC;html=1;" vertex="1" parent="1">
          <mxGeometry x="600" y="620" width="80" height="20" as="geometry" />
        </mxCell>
        <mxCell id="p_AoQ99GkYx1gfr2tnEL-122" value="" style="align=left;strokeColor=#CCCCCC;html=1;" vertex="1" parent="1">
          <mxGeometry x="680" y="620" width="80" height="20" as="geometry" />
        </mxCell>
        <mxCell id="p_AoQ99GkYx1gfr2tnEL-123" value="" style="align=left;strokeColor=#CCCCCC;html=1;" vertex="1" parent="1">
          <mxGeometry x="760" y="620" width="80" height="20" as="geometry" />
        </mxCell>
        <mxCell id="p_AoQ99GkYx1gfr2tnEL-124" value="" style="align=left;strokeColor=#CCCCCC;html=1;" vertex="1" parent="1">
          <mxGeometry x="840" y="620" width="80" height="20" as="geometry" />
        </mxCell>
        <mxCell id="p_AoQ99GkYx1gfr2tnEL-125" value="" style="align=left;strokeColor=#CCCCCC;html=1;" vertex="1" parent="1">
          <mxGeometry x="920" y="620" width="80" height="20" as="geometry" />
        </mxCell>
        <mxCell id="p_AoQ99GkYx1gfr2tnEL-126" value="" style="align=left;strokeColor=#CCCCCC;html=1;" vertex="1" parent="1">
          <mxGeometry x="1080" y="620" width="80" height="20" as="geometry" />
        </mxCell>
        <mxCell id="p_AoQ99GkYx1gfr2tnEL-127" value="" style="align=left;strokeColor=#CCCCCC;html=1;" vertex="1" parent="1">
          <mxGeometry x="1000" y="620" width="80" height="20" as="geometry" />
        </mxCell>
        <mxCell id="p_AoQ99GkYx1gfr2tnEL-128" value="" style="align=left;strokeColor=#CCCCCC;html=1;" vertex="1" parent="1">
          <mxGeometry x="1160" y="620" width="80" height="20" as="geometry" />
        </mxCell>
        <mxCell id="p_AoQ99GkYx1gfr2tnEL-158" value="" style="align=left;strokeColor=#CCCCCC;html=1;" vertex="1" parent="1">
          <mxGeometry x="160" y="640" width="120" height="20" as="geometry" />
        </mxCell>
        <mxCell id="p_AoQ99GkYx1gfr2tnEL-159" value="" style="align=left;strokeColor=#CCCCCC;html=1;" vertex="1" parent="1">
          <mxGeometry x="280" y="640" width="80" height="20" as="geometry" />
        </mxCell>
        <mxCell id="p_AoQ99GkYx1gfr2tnEL-160" value="" style="align=left;strokeColor=#CCCCCC;html=1;" vertex="1" parent="1">
          <mxGeometry x="360" y="640" width="80" height="20" as="geometry" />
        </mxCell>
        <mxCell id="p_AoQ99GkYx1gfr2tnEL-161" value="" style="align=left;strokeColor=#CCCCCC;html=1;" vertex="1" parent="1">
          <mxGeometry x="520" y="640" width="80" height="20" as="geometry" />
        </mxCell>
        <mxCell id="p_AoQ99GkYx1gfr2tnEL-162" value="" style="align=left;strokeColor=#CCCCCC;html=1;" vertex="1" parent="1">
          <mxGeometry x="440" y="640" width="80" height="20" as="geometry" />
        </mxCell>
        <mxCell id="p_AoQ99GkYx1gfr2tnEL-163" value="" style="align=left;strokeColor=#CCCCCC;html=1;" vertex="1" parent="1">
          <mxGeometry x="600" y="640" width="80" height="20" as="geometry" />
        </mxCell>
        <mxCell id="p_AoQ99GkYx1gfr2tnEL-164" value="" style="align=left;strokeColor=#CCCCCC;html=1;" vertex="1" parent="1">
          <mxGeometry x="680" y="640" width="80" height="20" as="geometry" />
        </mxCell>
        <mxCell id="p_AoQ99GkYx1gfr2tnEL-165" value="" style="align=left;strokeColor=#CCCCCC;html=1;" vertex="1" parent="1">
          <mxGeometry x="760" y="640" width="80" height="20" as="geometry" />
        </mxCell>
        <mxCell id="p_AoQ99GkYx1gfr2tnEL-166" value="" style="align=left;strokeColor=#CCCCCC;html=1;" vertex="1" parent="1">
          <mxGeometry x="840" y="640" width="80" height="20" as="geometry" />
        </mxCell>
        <mxCell id="p_AoQ99GkYx1gfr2tnEL-167" value="" style="align=left;strokeColor=#CCCCCC;html=1;" vertex="1" parent="1">
          <mxGeometry x="920" y="640" width="80" height="20" as="geometry" />
        </mxCell>
        <mxCell id="p_AoQ99GkYx1gfr2tnEL-168" value="" style="align=left;strokeColor=#CCCCCC;html=1;" vertex="1" parent="1">
          <mxGeometry x="1080" y="640" width="80" height="20" as="geometry" />
        </mxCell>
        <mxCell id="p_AoQ99GkYx1gfr2tnEL-169" value="" style="align=left;strokeColor=#CCCCCC;html=1;" vertex="1" parent="1">
          <mxGeometry x="1000" y="640" width="80" height="20" as="geometry" />
        </mxCell>
        <mxCell id="p_AoQ99GkYx1gfr2tnEL-170" value="" style="align=left;strokeColor=#CCCCCC;html=1;" vertex="1" parent="1">
          <mxGeometry x="1160" y="640" width="80" height="20" as="geometry" />
        </mxCell>
        <mxCell id="p_AoQ99GkYx1gfr2tnEL-172" value="" style="align=left;strokeColor=#CCCCCC;html=1;" vertex="1" parent="1">
          <mxGeometry x="160" y="660" width="120" height="20" as="geometry" />
        </mxCell>
        <mxCell id="p_AoQ99GkYx1gfr2tnEL-173" value="" style="align=left;strokeColor=#CCCCCC;html=1;" vertex="1" parent="1">
          <mxGeometry x="280" y="660" width="80" height="20" as="geometry" />
        </mxCell>
        <mxCell id="p_AoQ99GkYx1gfr2tnEL-174" value="" style="align=left;strokeColor=#CCCCCC;html=1;" vertex="1" parent="1">
          <mxGeometry x="360" y="660" width="80" height="20" as="geometry" />
        </mxCell>
        <mxCell id="p_AoQ99GkYx1gfr2tnEL-175" value="" style="align=left;strokeColor=#CCCCCC;html=1;" vertex="1" parent="1">
          <mxGeometry x="520" y="660" width="80" height="20" as="geometry" />
        </mxCell>
        <mxCell id="p_AoQ99GkYx1gfr2tnEL-176" value="" style="align=left;strokeColor=#CCCCCC;html=1;" vertex="1" parent="1">
          <mxGeometry x="440" y="660" width="80" height="20" as="geometry" />
        </mxCell>
        <mxCell id="p_AoQ99GkYx1gfr2tnEL-177" value="" style="align=left;strokeColor=#CCCCCC;html=1;" vertex="1" parent="1">
          <mxGeometry x="600" y="660" width="80" height="20" as="geometry" />
        </mxCell>
        <mxCell id="p_AoQ99GkYx1gfr2tnEL-178" value="" style="align=left;strokeColor=#CCCCCC;html=1;" vertex="1" parent="1">
          <mxGeometry x="680" y="660" width="80" height="20" as="geometry" />
        </mxCell>
        <mxCell id="p_AoQ99GkYx1gfr2tnEL-179" value="" style="align=left;strokeColor=#CCCCCC;html=1;" vertex="1" parent="1">
          <mxGeometry x="760" y="660" width="80" height="20" as="geometry" />
        </mxCell>
        <mxCell id="p_AoQ99GkYx1gfr2tnEL-180" value="" style="align=left;strokeColor=#CCCCCC;html=1;" vertex="1" parent="1">
          <mxGeometry x="840" y="660" width="80" height="20" as="geometry" />
        </mxCell>
        <mxCell id="p_AoQ99GkYx1gfr2tnEL-181" value="" style="align=left;strokeColor=#CCCCCC;html=1;" vertex="1" parent="1">
          <mxGeometry x="920" y="660" width="80" height="20" as="geometry" />
        </mxCell>
        <mxCell id="p_AoQ99GkYx1gfr2tnEL-182" value="" style="align=left;strokeColor=#CCCCCC;html=1;" vertex="1" parent="1">
          <mxGeometry x="1080" y="660" width="80" height="20" as="geometry" />
        </mxCell>
        <mxCell id="p_AoQ99GkYx1gfr2tnEL-183" value="" style="align=left;strokeColor=#CCCCCC;html=1;" vertex="1" parent="1">
          <mxGeometry x="1000" y="660" width="80" height="20" as="geometry" />
        </mxCell>
        <mxCell id="p_AoQ99GkYx1gfr2tnEL-184" value="" style="align=left;strokeColor=#CCCCCC;html=1;" vertex="1" parent="1">
          <mxGeometry x="1160" y="660" width="80" height="20" as="geometry" />
        </mxCell>
        <mxCell id="p_AoQ99GkYx1gfr2tnEL-186" value="" style="align=left;strokeColor=#CCCCCC;html=1;" vertex="1" parent="1">
          <mxGeometry x="160" y="680" width="120" height="20" as="geometry" />
        </mxCell>
        <mxCell id="p_AoQ99GkYx1gfr2tnEL-187" value="" style="align=left;strokeColor=#CCCCCC;html=1;" vertex="1" parent="1">
          <mxGeometry x="280" y="680" width="80" height="20" as="geometry" />
        </mxCell>
        <mxCell id="p_AoQ99GkYx1gfr2tnEL-188" value="" style="align=left;strokeColor=#CCCCCC;html=1;" vertex="1" parent="1">
          <mxGeometry x="360" y="680" width="80" height="20" as="geometry" />
        </mxCell>
        <mxCell id="p_AoQ99GkYx1gfr2tnEL-189" value="" style="align=left;strokeColor=#CCCCCC;html=1;" vertex="1" parent="1">
          <mxGeometry x="520" y="680" width="80" height="20" as="geometry" />
        </mxCell>
        <mxCell id="p_AoQ99GkYx1gfr2tnEL-190" value="" style="align=left;strokeColor=#CCCCCC;html=1;" vertex="1" parent="1">
          <mxGeometry x="440" y="680" width="80" height="20" as="geometry" />
        </mxCell>
        <mxCell id="p_AoQ99GkYx1gfr2tnEL-191" value="" style="align=left;strokeColor=#CCCCCC;html=1;" vertex="1" parent="1">
          <mxGeometry x="600" y="680" width="80" height="20" as="geometry" />
        </mxCell>
        <mxCell id="p_AoQ99GkYx1gfr2tnEL-192" value="" style="align=left;strokeColor=#CCCCCC;html=1;" vertex="1" parent="1">
          <mxGeometry x="680" y="680" width="80" height="20" as="geometry" />
        </mxCell>
        <mxCell id="p_AoQ99GkYx1gfr2tnEL-193" value="" style="align=left;strokeColor=#CCCCCC;html=1;" vertex="1" parent="1">
          <mxGeometry x="760" y="680" width="80" height="20" as="geometry" />
        </mxCell>
        <mxCell id="p_AoQ99GkYx1gfr2tnEL-194" value="" style="align=left;strokeColor=#CCCCCC;html=1;" vertex="1" parent="1">
          <mxGeometry x="840" y="680" width="80" height="20" as="geometry" />
        </mxCell>
        <mxCell id="p_AoQ99GkYx1gfr2tnEL-195" value="" style="align=left;strokeColor=#CCCCCC;html=1;" vertex="1" parent="1">
          <mxGeometry x="920" y="680" width="80" height="20" as="geometry" />
        </mxCell>
        <mxCell id="p_AoQ99GkYx1gfr2tnEL-196" value="" style="align=left;strokeColor=#CCCCCC;html=1;" vertex="1" parent="1">
          <mxGeometry x="1080" y="680" width="80" height="20" as="geometry" />
        </mxCell>
        <mxCell id="p_AoQ99GkYx1gfr2tnEL-197" value="" style="align=left;strokeColor=#CCCCCC;html=1;" vertex="1" parent="1">
          <mxGeometry x="1000" y="680" width="80" height="20" as="geometry" />
        </mxCell>
        <mxCell id="p_AoQ99GkYx1gfr2tnEL-198" value="" style="align=left;strokeColor=#CCCCCC;html=1;" vertex="1" parent="1">
          <mxGeometry x="1160" y="680" width="80" height="20" as="geometry" />
        </mxCell>
        <mxCell id="p_AoQ99GkYx1gfr2tnEL-200" value="" style="align=left;strokeColor=#CCCCCC;html=1;" vertex="1" parent="1">
          <mxGeometry x="160" y="700" width="120" height="20" as="geometry" />
        </mxCell>
        <mxCell id="p_AoQ99GkYx1gfr2tnEL-201" value="" style="align=left;strokeColor=#CCCCCC;html=1;" vertex="1" parent="1">
          <mxGeometry x="280" y="700" width="80" height="20" as="geometry" />
        </mxCell>
        <mxCell id="p_AoQ99GkYx1gfr2tnEL-202" value="" style="align=left;strokeColor=#CCCCCC;html=1;" vertex="1" parent="1">
          <mxGeometry x="360" y="700" width="80" height="20" as="geometry" />
        </mxCell>
        <mxCell id="p_AoQ99GkYx1gfr2tnEL-203" value="" style="align=left;strokeColor=#CCCCCC;html=1;" vertex="1" parent="1">
          <mxGeometry x="520" y="700" width="80" height="20" as="geometry" />
        </mxCell>
        <mxCell id="p_AoQ99GkYx1gfr2tnEL-204" value="" style="align=left;strokeColor=#CCCCCC;html=1;" vertex="1" parent="1">
          <mxGeometry x="440" y="700" width="80" height="20" as="geometry" />
        </mxCell>
        <mxCell id="p_AoQ99GkYx1gfr2tnEL-205" value="" style="align=left;strokeColor=#CCCCCC;html=1;" vertex="1" parent="1">
          <mxGeometry x="600" y="700" width="80" height="20" as="geometry" />
        </mxCell>
        <mxCell id="p_AoQ99GkYx1gfr2tnEL-206" value="" style="align=left;strokeColor=#CCCCCC;html=1;" vertex="1" parent="1">
          <mxGeometry x="680" y="700" width="80" height="20" as="geometry" />
        </mxCell>
        <mxCell id="p_AoQ99GkYx1gfr2tnEL-207" value="" style="align=left;strokeColor=#CCCCCC;html=1;" vertex="1" parent="1">
          <mxGeometry x="760" y="700" width="80" height="20" as="geometry" />
        </mxCell>
        <mxCell id="p_AoQ99GkYx1gfr2tnEL-208" value="" style="align=left;strokeColor=#CCCCCC;html=1;" vertex="1" parent="1">
          <mxGeometry x="840" y="700" width="80" height="20" as="geometry" />
        </mxCell>
        <mxCell id="p_AoQ99GkYx1gfr2tnEL-209" value="" style="align=left;strokeColor=#CCCCCC;html=1;" vertex="1" parent="1">
          <mxGeometry x="920" y="700" width="80" height="20" as="geometry" />
        </mxCell>
        <mxCell id="p_AoQ99GkYx1gfr2tnEL-210" value="" style="align=left;strokeColor=#CCCCCC;html=1;" vertex="1" parent="1">
          <mxGeometry x="1080" y="700" width="80" height="20" as="geometry" />
        </mxCell>
        <mxCell id="p_AoQ99GkYx1gfr2tnEL-211" value="" style="align=left;strokeColor=#CCCCCC;html=1;" vertex="1" parent="1">
          <mxGeometry x="1000" y="700" width="80" height="20" as="geometry" />
        </mxCell>
        <mxCell id="p_AoQ99GkYx1gfr2tnEL-212" value="" style="align=left;strokeColor=#CCCCCC;html=1;" vertex="1" parent="1">
          <mxGeometry x="1160" y="700" width="80" height="20" as="geometry" />
        </mxCell>
        <mxCell id="p_AoQ99GkYx1gfr2tnEL-214" value="" style="align=left;strokeColor=#CCCCCC;html=1;" vertex="1" parent="1">
          <mxGeometry x="160" y="720" width="120" height="20" as="geometry" />
        </mxCell>
        <mxCell id="p_AoQ99GkYx1gfr2tnEL-215" value="" style="align=left;strokeColor=#CCCCCC;html=1;" vertex="1" parent="1">
          <mxGeometry x="280" y="720" width="80" height="20" as="geometry" />
        </mxCell>
        <mxCell id="p_AoQ99GkYx1gfr2tnEL-216" value="" style="align=left;strokeColor=#CCCCCC;html=1;" vertex="1" parent="1">
          <mxGeometry x="360" y="720" width="80" height="20" as="geometry" />
        </mxCell>
        <mxCell id="p_AoQ99GkYx1gfr2tnEL-217" value="" style="align=left;strokeColor=#CCCCCC;html=1;" vertex="1" parent="1">
          <mxGeometry x="520" y="720" width="80" height="20" as="geometry" />
        </mxCell>
        <mxCell id="p_AoQ99GkYx1gfr2tnEL-218" value="" style="align=left;strokeColor=#CCCCCC;html=1;" vertex="1" parent="1">
          <mxGeometry x="440" y="720" width="80" height="20" as="geometry" />
        </mxCell>
        <mxCell id="p_AoQ99GkYx1gfr2tnEL-219" value="" style="align=left;strokeColor=#CCCCCC;html=1;" vertex="1" parent="1">
          <mxGeometry x="600" y="720" width="80" height="20" as="geometry" />
        </mxCell>
        <mxCell id="p_AoQ99GkYx1gfr2tnEL-220" value="" style="align=left;strokeColor=#CCCCCC;html=1;" vertex="1" parent="1">
          <mxGeometry x="680" y="720" width="80" height="20" as="geometry" />
        </mxCell>
        <mxCell id="p_AoQ99GkYx1gfr2tnEL-221" value="" style="align=left;strokeColor=#CCCCCC;html=1;" vertex="1" parent="1">
          <mxGeometry x="760" y="720" width="80" height="20" as="geometry" />
        </mxCell>
        <mxCell id="p_AoQ99GkYx1gfr2tnEL-222" value="" style="align=left;strokeColor=#CCCCCC;html=1;" vertex="1" parent="1">
          <mxGeometry x="840" y="720" width="80" height="20" as="geometry" />
        </mxCell>
        <mxCell id="p_AoQ99GkYx1gfr2tnEL-223" value="" style="align=left;strokeColor=#CCCCCC;html=1;" vertex="1" parent="1">
          <mxGeometry x="920" y="720" width="80" height="20" as="geometry" />
        </mxCell>
        <mxCell id="p_AoQ99GkYx1gfr2tnEL-224" value="" style="align=left;strokeColor=#CCCCCC;html=1;" vertex="1" parent="1">
          <mxGeometry x="1080" y="720" width="80" height="20" as="geometry" />
        </mxCell>
        <mxCell id="p_AoQ99GkYx1gfr2tnEL-225" value="" style="align=left;strokeColor=#CCCCCC;html=1;" vertex="1" parent="1">
          <mxGeometry x="1000" y="720" width="80" height="20" as="geometry" />
        </mxCell>
        <mxCell id="p_AoQ99GkYx1gfr2tnEL-226" value="" style="align=left;strokeColor=#CCCCCC;html=1;" vertex="1" parent="1">
          <mxGeometry x="1160" y="720" width="80" height="20" as="geometry" />
        </mxCell>
        <mxCell id="p_AoQ99GkYx1gfr2tnEL-228" value="" style="align=left;strokeColor=#CCCCCC;html=1;" vertex="1" parent="1">
          <mxGeometry x="160" y="740" width="120" height="20" as="geometry" />
        </mxCell>
        <mxCell id="p_AoQ99GkYx1gfr2tnEL-229" value="" style="align=left;strokeColor=#CCCCCC;html=1;" vertex="1" parent="1">
          <mxGeometry x="280" y="740" width="80" height="20" as="geometry" />
        </mxCell>
        <mxCell id="p_AoQ99GkYx1gfr2tnEL-230" value="" style="align=left;strokeColor=#CCCCCC;html=1;" vertex="1" parent="1">
          <mxGeometry x="360" y="740" width="80" height="20" as="geometry" />
        </mxCell>
        <mxCell id="p_AoQ99GkYx1gfr2tnEL-231" value="" style="align=left;strokeColor=#CCCCCC;html=1;" vertex="1" parent="1">
          <mxGeometry x="520" y="740" width="80" height="20" as="geometry" />
        </mxCell>
        <mxCell id="p_AoQ99GkYx1gfr2tnEL-232" value="" style="align=left;strokeColor=#CCCCCC;html=1;" vertex="1" parent="1">
          <mxGeometry x="440" y="740" width="80" height="20" as="geometry" />
        </mxCell>
        <mxCell id="p_AoQ99GkYx1gfr2tnEL-233" value="" style="align=left;strokeColor=#CCCCCC;html=1;" vertex="1" parent="1">
          <mxGeometry x="600" y="740" width="80" height="20" as="geometry" />
        </mxCell>
        <mxCell id="p_AoQ99GkYx1gfr2tnEL-234" value="" style="align=left;strokeColor=#CCCCCC;html=1;" vertex="1" parent="1">
          <mxGeometry x="680" y="740" width="80" height="20" as="geometry" />
        </mxCell>
        <mxCell id="p_AoQ99GkYx1gfr2tnEL-235" value="" style="align=left;strokeColor=#CCCCCC;html=1;" vertex="1" parent="1">
          <mxGeometry x="760" y="740" width="80" height="20" as="geometry" />
        </mxCell>
        <mxCell id="p_AoQ99GkYx1gfr2tnEL-236" value="" style="align=left;strokeColor=#CCCCCC;html=1;" vertex="1" parent="1">
          <mxGeometry x="840" y="740" width="80" height="20" as="geometry" />
        </mxCell>
        <mxCell id="p_AoQ99GkYx1gfr2tnEL-237" value="" style="align=left;strokeColor=#CCCCCC;html=1;" vertex="1" parent="1">
          <mxGeometry x="920" y="740" width="80" height="20" as="geometry" />
        </mxCell>
        <mxCell id="p_AoQ99GkYx1gfr2tnEL-238" value="" style="align=left;strokeColor=#CCCCCC;html=1;" vertex="1" parent="1">
          <mxGeometry x="1080" y="740" width="80" height="20" as="geometry" />
        </mxCell>
        <mxCell id="p_AoQ99GkYx1gfr2tnEL-239" value="" style="align=left;strokeColor=#CCCCCC;html=1;" vertex="1" parent="1">
          <mxGeometry x="1000" y="740" width="80" height="20" as="geometry" />
        </mxCell>
        <mxCell id="p_AoQ99GkYx1gfr2tnEL-240" value="" style="align=left;strokeColor=#CCCCCC;html=1;" vertex="1" parent="1">
          <mxGeometry x="1160" y="740" width="80" height="20" as="geometry" />
        </mxCell>
        <mxCell id="p_AoQ99GkYx1gfr2tnEL-242" value="" style="align=left;strokeColor=#CCCCCC;html=1;" vertex="1" parent="1">
          <mxGeometry x="160" y="760" width="120" height="20" as="geometry" />
        </mxCell>
        <mxCell id="p_AoQ99GkYx1gfr2tnEL-243" value="" style="align=left;strokeColor=#CCCCCC;html=1;" vertex="1" parent="1">
          <mxGeometry x="280" y="760" width="80" height="20" as="geometry" />
        </mxCell>
        <mxCell id="p_AoQ99GkYx1gfr2tnEL-244" value="" style="align=left;strokeColor=#CCCCCC;html=1;" vertex="1" parent="1">
          <mxGeometry x="360" y="760" width="80" height="20" as="geometry" />
        </mxCell>
        <mxCell id="p_AoQ99GkYx1gfr2tnEL-245" value="" style="align=left;strokeColor=#CCCCCC;html=1;" vertex="1" parent="1">
          <mxGeometry x="520" y="760" width="80" height="20" as="geometry" />
        </mxCell>
        <mxCell id="p_AoQ99GkYx1gfr2tnEL-246" value="" style="align=left;strokeColor=#CCCCCC;html=1;" vertex="1" parent="1">
          <mxGeometry x="440" y="760" width="80" height="20" as="geometry" />
        </mxCell>
        <mxCell id="p_AoQ99GkYx1gfr2tnEL-247" value="" style="align=left;strokeColor=#CCCCCC;html=1;" vertex="1" parent="1">
          <mxGeometry x="600" y="760" width="80" height="20" as="geometry" />
        </mxCell>
        <mxCell id="p_AoQ99GkYx1gfr2tnEL-248" value="" style="align=left;strokeColor=#CCCCCC;html=1;" vertex="1" parent="1">
          <mxGeometry x="680" y="760" width="80" height="20" as="geometry" />
        </mxCell>
        <mxCell id="p_AoQ99GkYx1gfr2tnEL-249" value="" style="align=left;strokeColor=#CCCCCC;html=1;" vertex="1" parent="1">
          <mxGeometry x="760" y="760" width="80" height="20" as="geometry" />
        </mxCell>
        <mxCell id="p_AoQ99GkYx1gfr2tnEL-250" value="" style="align=left;strokeColor=#CCCCCC;html=1;" vertex="1" parent="1">
          <mxGeometry x="840" y="760" width="80" height="20" as="geometry" />
        </mxCell>
        <mxCell id="p_AoQ99GkYx1gfr2tnEL-251" value="" style="align=left;strokeColor=#CCCCCC;html=1;" vertex="1" parent="1">
          <mxGeometry x="920" y="760" width="80" height="20" as="geometry" />
        </mxCell>
        <mxCell id="p_AoQ99GkYx1gfr2tnEL-252" value="" style="align=left;strokeColor=#CCCCCC;html=1;" vertex="1" parent="1">
          <mxGeometry x="1080" y="760" width="80" height="20" as="geometry" />
        </mxCell>
        <mxCell id="p_AoQ99GkYx1gfr2tnEL-253" value="" style="align=left;strokeColor=#CCCCCC;html=1;" vertex="1" parent="1">
          <mxGeometry x="1000" y="760" width="80" height="20" as="geometry" />
        </mxCell>
        <mxCell id="p_AoQ99GkYx1gfr2tnEL-254" value="" style="align=left;strokeColor=#CCCCCC;html=1;" vertex="1" parent="1">
          <mxGeometry x="1160" y="760" width="80" height="20" as="geometry" />
        </mxCell>
        <mxCell id="p_AoQ99GkYx1gfr2tnEL-256" value="" style="align=left;strokeColor=#CCCCCC;html=1;" vertex="1" parent="1">
          <mxGeometry x="160" y="780" width="120" height="20" as="geometry" />
        </mxCell>
        <mxCell id="p_AoQ99GkYx1gfr2tnEL-257" value="" style="align=left;strokeColor=#CCCCCC;html=1;" vertex="1" parent="1">
          <mxGeometry x="280" y="780" width="80" height="20" as="geometry" />
        </mxCell>
        <mxCell id="p_AoQ99GkYx1gfr2tnEL-258" value="" style="align=left;strokeColor=#CCCCCC;html=1;" vertex="1" parent="1">
          <mxGeometry x="360" y="780" width="80" height="20" as="geometry" />
        </mxCell>
        <mxCell id="p_AoQ99GkYx1gfr2tnEL-259" value="" style="align=left;strokeColor=#CCCCCC;html=1;" vertex="1" parent="1">
          <mxGeometry x="520" y="780" width="80" height="20" as="geometry" />
        </mxCell>
        <mxCell id="p_AoQ99GkYx1gfr2tnEL-260" value="" style="align=left;strokeColor=#CCCCCC;html=1;" vertex="1" parent="1">
          <mxGeometry x="440" y="780" width="80" height="20" as="geometry" />
        </mxCell>
        <mxCell id="p_AoQ99GkYx1gfr2tnEL-261" value="" style="align=left;strokeColor=#CCCCCC;html=1;" vertex="1" parent="1">
          <mxGeometry x="600" y="780" width="80" height="20" as="geometry" />
        </mxCell>
        <mxCell id="p_AoQ99GkYx1gfr2tnEL-262" value="" style="align=left;strokeColor=#CCCCCC;html=1;" vertex="1" parent="1">
          <mxGeometry x="680" y="780" width="80" height="20" as="geometry" />
        </mxCell>
        <mxCell id="p_AoQ99GkYx1gfr2tnEL-263" value="" style="align=left;strokeColor=#CCCCCC;html=1;" vertex="1" parent="1">
          <mxGeometry x="760" y="780" width="80" height="20" as="geometry" />
        </mxCell>
        <mxCell id="p_AoQ99GkYx1gfr2tnEL-264" value="" style="align=left;strokeColor=#CCCCCC;html=1;" vertex="1" parent="1">
          <mxGeometry x="840" y="780" width="80" height="20" as="geometry" />
        </mxCell>
        <mxCell id="p_AoQ99GkYx1gfr2tnEL-265" value="" style="align=left;strokeColor=#CCCCCC;html=1;" vertex="1" parent="1">
          <mxGeometry x="920" y="780" width="80" height="20" as="geometry" />
        </mxCell>
        <mxCell id="p_AoQ99GkYx1gfr2tnEL-266" value="" style="align=left;strokeColor=#CCCCCC;html=1;" vertex="1" parent="1">
          <mxGeometry x="1080" y="780" width="80" height="20" as="geometry" />
        </mxCell>
        <mxCell id="p_AoQ99GkYx1gfr2tnEL-267" value="" style="align=left;strokeColor=#CCCCCC;html=1;" vertex="1" parent="1">
          <mxGeometry x="1000" y="780" width="80" height="20" as="geometry" />
        </mxCell>
        <mxCell id="p_AoQ99GkYx1gfr2tnEL-268" value="" style="align=left;strokeColor=#CCCCCC;html=1;" vertex="1" parent="1">
          <mxGeometry x="1160" y="780" width="80" height="20" as="geometry" />
        </mxCell>
        <mxCell id="p_AoQ99GkYx1gfr2tnEL-270" value="T7" style="align=left;strokeColor=#A50040;html=1;fillColor=#d80073;fontColor=#ffffff;" vertex="1" parent="1">
          <mxGeometry x="680" y="542.5" width="30" height="15" as="geometry" />
        </mxCell>
        <mxCell id="p_AoQ99GkYx1gfr2tnEL-271" value="Ronan" style="align=left;strokeColor=#2D7600;html=1;fillColor=#60a917;fontColor=#ffffff;" vertex="1" parent="1">
          <mxGeometry x="175" y="502.5" width="90" height="15" as="geometry" />
        </mxCell>
        <mxCell id="p_AoQ99GkYx1gfr2tnEL-272" value="T31" style="align=left;strokeColor=#006EAF;html=1;fillColor=#1ba1e2;fontColor=#ffffff;" vertex="1" parent="1">
          <mxGeometry x="1040" y="742.5" width="40" height="15" as="geometry" />
        </mxCell>
        <mxCell id="p_AoQ99GkYx1gfr2tnEL-273" value="T10" style="align=left;strokeColor=#A50040;html=1;fillColor=#d80073;fontColor=#ffffff;" vertex="1" parent="1">
          <mxGeometry x="710" y="562.5" width="25" height="15" as="geometry" />
        </mxCell>
        <mxCell id="p_AoQ99GkYx1gfr2tnEL-274" value="T13" style="align=left;strokeColor=#A50040;html=1;fillColor=#d80073;fontColor=#ffffff;" vertex="1" parent="1">
          <mxGeometry x="735" y="542.5" width="25" height="15" as="geometry" />
        </mxCell>
        <mxCell id="p_AoQ99GkYx1gfr2tnEL-275" value="T4" style="align=left;strokeColor=#A50040;html=1;fillColor=#d80073;fontColor=#ffffff;" vertex="1" parent="1">
          <mxGeometry x="660" y="521.5" width="30" height="15" as="geometry" />
        </mxCell>
        <mxCell id="p_AoQ99GkYx1gfr2tnEL-276" value="T5" style="align=left;strokeColor=#2D7600;html=1;fillColor=#60a917;fontColor=#ffffff;" vertex="1" parent="1">
          <mxGeometry x="660" y="481.5" width="30" height="15" as="geometry" />
        </mxCell>
        <mxCell id="p_AoQ99GkYx1gfr2tnEL-278" value="Natalia" style="align=left;strokeColor=#A50040;html=1;fillColor=#d80073;fontColor=#ffffff;" vertex="1" parent="1">
          <mxGeometry x="175" y="481.5" width="90" height="15" as="geometry" />
        </mxCell>
        <mxCell id="p_AoQ99GkYx1gfr2tnEL-279" value="T8" style="align=left;strokeColor=#2D7600;html=1;fillColor=#60a917;fontColor=#ffffff;" vertex="1" parent="1">
          <mxGeometry x="680" y="562.5" width="30" height="15" as="geometry" />
        </mxCell>
        <mxCell id="p_AoQ99GkYx1gfr2tnEL-280" value="T11" style="align=left;strokeColor=#2D7600;html=1;fillColor=#60a917;fontColor=#ffffff;" vertex="1" parent="1">
          <mxGeometry x="710" y="582.5" width="25" height="15" as="geometry" />
        </mxCell>
        <mxCell id="p_AoQ99GkYx1gfr2tnEL-281" value="T14" style="align=left;strokeColor=#2D7600;html=1;fillColor=#60a917;fontColor=#ffffff;" vertex="1" parent="1">
          <mxGeometry x="735" y="562.5" width="25" height="15" as="geometry" />
        </mxCell>
        <mxCell id="p_AoQ99GkYx1gfr2tnEL-282" value="T36" style="align=left;strokeColor=#2D7600;html=1;fillColor=#60a917;fontColor=#ffffff;" vertex="1" parent="1">
          <mxGeometry x="1080" y="501.5" width="80" height="15" as="geometry" />
        </mxCell>
        <mxCell id="p_AoQ99GkYx1gfr2tnEL-283" value="T32" style="align=left;strokeColor=#A50040;html=1;fillColor=#d80073;fontColor=#ffffff;" vertex="1" parent="1">
          <mxGeometry x="1040" y="762.5" width="40" height="15" as="geometry" />
        </mxCell>
        <mxCell id="p_AoQ99GkYx1gfr2tnEL-284" value="T27" style="align=left;strokeColor=#2D7600;html=1;fillColor=#60a917;fontColor=#ffffff;" vertex="1" parent="1">
          <mxGeometry x="880" y="702.5" width="60" height="15" as="geometry" />
        </mxCell>
        <mxCell id="p_AoQ99GkYx1gfr2tnEL-285" value="T25" style="align=left;strokeColor=#2D7600;html=1;fillColor=#60a917;fontColor=#ffffff;" vertex="1" parent="1">
          <mxGeometry x="827.5" y="682.5" width="40" height="15" as="geometry" />
        </mxCell>
        <mxCell id="p_AoQ99GkYx1gfr2tnEL-286" value="T19" style="align=left;strokeColor=#2D7600;html=1;fillColor=#60a917;fontColor=#ffffff;" vertex="1" parent="1">
          <mxGeometry x="865.5" y="622.5" width="40" height="15" as="geometry" />
        </mxCell>
        <mxCell id="p_AoQ99GkYx1gfr2tnEL-287" value="T22" style="align=left;strokeColor=#2D7600;html=1;fillColor=#60a917;fontColor=#ffffff;" vertex="1" parent="1">
          <mxGeometry x="762.5" y="662.5" width="67.5" height="15" as="geometry" />
        </mxCell>
        <mxCell id="p_AoQ99GkYx1gfr2tnEL-288" value="T20" style="align=left;strokeColor=#006EAF;html=1;fillColor=#1ba1e2;fontColor=#ffffff;" vertex="1" parent="1">
          <mxGeometry x="830" y="602.5" width="37.5" height="15" as="geometry" />
        </mxCell>
        <mxCell id="p_AoQ99GkYx1gfr2tnEL-289" value="T24" style="align=left;strokeColor=#006EAF;html=1;fillColor=#1ba1e2;fontColor=#ffffff;" vertex="1" parent="1">
          <mxGeometry x="762.5" y="682.5" width="67.5" height="15" as="geometry" />
        </mxCell>
        <mxCell id="p_AoQ99GkYx1gfr2tnEL-290" value="T21" style="align=left;strokeColor=#006EAF;html=1;fillColor=#1ba1e2;fontColor=#ffffff;" vertex="1" parent="1">
          <mxGeometry x="905.5" y="642.5" width="50" height="15" as="geometry" />
        </mxCell>
        <mxCell id="p_AoQ99GkYx1gfr2tnEL-292" value="Ivan" style="align=left;strokeColor=#006EAF;html=1;fillColor=#1ba1e2;fontColor=#ffffff;" vertex="1" parent="1">
          <mxGeometry x="175" y="521.5" width="90" height="15" as="geometry" />
        </mxCell>
        <mxCell id="p_AoQ99GkYx1gfr2tnEL-293" value="T15" style="align=left;strokeColor=#006EAF;html=1;fillColor=#1ba1e2;fontColor=#ffffff;" vertex="1" parent="1">
          <mxGeometry x="735" y="582.5" width="25" height="15" as="geometry" />
        </mxCell>
        <mxCell id="p_AoQ99GkYx1gfr2tnEL-296" value="" style="align=left;strokeColor=#CCCCCC;html=1;" vertex="1" parent="1">
          <mxGeometry x="680" y="500" width="80" height="20" as="geometry" />
        </mxCell>
        <mxCell id="p_AoQ99GkYx1gfr2tnEL-294" value="T9" style="align=left;strokeColor=#006EAF;html=1;fillColor=#1ba1e2;fontColor=#ffffff;" vertex="1" parent="1">
          <mxGeometry x="680" y="582.5" width="30" height="15" as="geometry" />
        </mxCell>
        <mxCell id="p_AoQ99GkYx1gfr2tnEL-295" value="T12" style="align=left;strokeColor=#006EAF;html=1;fillColor=#1ba1e2;fontColor=#ffffff;" vertex="1" parent="1">
          <mxGeometry x="710" y="542.5" width="25" height="15" as="geometry" />
        </mxCell>
        <mxCell id="7a8b956e7d50b54d-354" value="T2" style="align=left;strokeColor=#2D7600;html=1;fillColor=#60a917;fontColor=#ffffff;" parent="1" vertex="1">
          <mxGeometry x="600" y="501.5" width="60" height="15" as="geometry" />
        </mxCell>
        <mxCell id="p_AoQ99GkYx1gfr2tnEL-297" value="T16" style="align=left;strokeColor=#A50040;html=1;fillColor=#d80073;fontColor=#ffffff;" vertex="1" parent="1">
          <mxGeometry x="762.5" y="602.5" width="40" height="15" as="geometry" />
        </mxCell>
        <mxCell id="p_AoQ99GkYx1gfr2tnEL-298" value="T17" style="align=left;strokeColor=#A50040;html=1;fillColor=#d80073;fontColor=#ffffff;" vertex="1" parent="1">
          <mxGeometry x="802.5" y="622.5" width="47.5" height="15" as="geometry" />
        </mxCell>
        <mxCell id="p_AoQ99GkYx1gfr2tnEL-299" value="T18" style="align=left;strokeColor=#A50040;html=1;fillColor=#d80073;fontColor=#ffffff;" vertex="1" parent="1">
          <mxGeometry x="848" y="642.5" width="57.5" height="15" as="geometry" />
        </mxCell>
        <mxCell id="p_AoQ99GkYx1gfr2tnEL-300" value="T23" style="align=left;strokeColor=#006EAF;html=1;fillColor=#1ba1e2;fontColor=#ffffff;" vertex="1" parent="1">
          <mxGeometry x="867.5" y="662.5" width="40" height="15" as="geometry" />
        </mxCell>
        <mxCell id="p_AoQ99GkYx1gfr2tnEL-301" value="T26" style="align=left;strokeColor=#A50040;html=1;fillColor=#d80073;fontColor=#ffffff;" vertex="1" parent="1">
          <mxGeometry x="910" y="722.5" width="70" height="15" as="geometry" />
        </mxCell>
        <mxCell id="p_AoQ99GkYx1gfr2tnEL-302" value="T34" style="align=left;strokeColor=#A50040;html=1;fillColor=#d80073;fontColor=#ffffff;" vertex="1" parent="1">
          <mxGeometry x="1080" y="481.5" width="80" height="15" as="geometry" />
        </mxCell>
        <mxCell id="p_AoQ99GkYx1gfr2tnEL-307" value="T30" style="align=left;strokeColor=#006EAF;html=1;fillColor=#1ba1e2;fontColor=#ffffff;" vertex="1" parent="1">
          <mxGeometry x="940" y="702.5" width="40" height="15" as="geometry" />
        </mxCell>
        <mxCell id="p_AoQ99GkYx1gfr2tnEL-309" value="T35" style="align=left;strokeColor=#006EAF;html=1;fillColor=#1ba1e2;fontColor=#ffffff;" vertex="1" parent="1">
          <mxGeometry x="1080" y="524" width="80" height="15" as="geometry" />
        </mxCell>
        <mxCell id="p_AoQ99GkYx1gfr2tnEL-277" value="T6" style="align=left;strokeColor=#006EAF;html=1;fillColor=#1ba1e2;fontColor=#ffffff;" vertex="1" parent="1">
          <mxGeometry x="660" y="501.5" width="30" height="15" as="geometry" />
        </mxCell>
        <mxCell id="p_AoQ99GkYx1gfr2tnEL-310" value="T33" style="align=left;strokeColor=#2D7600;html=1;fillColor=#60a917;fontColor=#ffffff;" vertex="1" parent="1">
          <mxGeometry x="980" y="722.5" width="100" height="15" as="geometry" />
        </mxCell>
        <mxCell id="p_AoQ99GkYx1gfr2tnEL-311" value="T29" style="align=left;strokeColor=#006EAF;html=1;fillColor=#1ba1e2;fontColor=#ffffff;" vertex="1" parent="1">
          <mxGeometry x="960" y="762.5" width="80" height="15" as="geometry" />
        </mxCell>
        <mxCell id="p_AoQ99GkYx1gfr2tnEL-312" value="T28" style="align=left;strokeColor=#A50040;html=1;fillColor=#d80073;fontColor=#ffffff;" vertex="1" parent="1">
          <mxGeometry x="980" y="742.5" width="60" height="15" as="geometry" />
        </mxCell>
        <mxCell id="p_AoQ99GkYx1gfr2tnEL-314" value="" style="endArrow=none;html=1;rounded=0;entryX=0.042;entryY=0.067;entryDx=0;entryDy=0;entryPerimeter=0;exitX=-0.05;exitY=0.95;exitDx=0;exitDy=0;exitPerimeter=0;" edge="1" parent="1" source="p_AoQ99GkYx1gfr2tnEL-261" target="7a8b956e7d50b54d-177">
          <mxGeometry width="50" height="50" relative="1" as="geometry">
            <mxPoint x="660" y="570" as="sourcePoint" />
            <mxPoint x="710" y="520" as="targetPoint" />
          </mxGeometry>
        </mxCell>
      </root>
    </mxGraphModel>
  </diagram>
</mxfile>
